<svg width="32" height="32" viewBox="0 0 32 32" fill="none" xmlns="http://www.w3.org/2000/svg">
  <!-- Ícone da Espiga de Grão (Versão Favicon) -->
  <g transform="translate(6, 4)">
    <!-- Espiga de Grão (Amarela) -->
    <path d="M10 2 L10 22 M8 4 L12 4 M7 6 L13 6 M6 8 L14 8 M5 10 L15 10 M4 12 L16 12 M3 14 L17 14 M2 16 L18 16 M1 18 L19 18" 
          stroke="#ffeb3b" stroke-width="1.5" stroke-linecap="round"/>
    
    <!-- Grãos individuais -->
    <circle cx="10" cy="4" r="1" fill="#ffeb3b"/>
    <circle cx="10" cy="6" r="1" fill="#ffeb3b"/>
    <circle cx="10" cy="8" r="1" fill="#ffeb3b"/>
    <circle cx="10" cy="10" r="1" fill="#ffeb3b"/>
    <circle cx="10" cy="12" r="1" fill="#ffeb3b"/>
    <circle cx="10" cy="14" r="1" fill="#ffeb3b"/>
    <circle cx="10" cy="16" r="1" fill="#ffeb3b"/>
    <circle cx="10" cy="18" r="1" fill="#ffeb3b"/>
    
    <!-- Forma Curva Verde (Folha/Braço) -->
    <path d="M2 20 Q10 12 18 6 Q16 2 10 2 Q4 2 2 6 Q2 12 2 20" 
          fill="#4caf50" opacity="0.9"/>
  </g>
</svg>
